<?xml version="1.0" encoding="UTF-8"?>
<!DOCTYPE svg PUBLIC "-//W3C//DTD SVG 1.1//EN" "http://www.w3.org/Graphics/SVG/1.1/DTD/svg11.dtd">
<!-- Creator: CorelDRAW -->
<svg xmlns="http://www.w3.org/2000/svg" xml:space="preserve" width="297mm" height="210mm" version="1.1" style="shape-rendering:geometricPrecision; text-rendering:geometricPrecision; image-rendering:optimizeQuality; fill-rule:evenodd; clip-rule:evenodd"
viewBox="0 0 29700 21000"
 xmlns:xlink="http://www.w3.org/1999/xlink"
 xmlns:xodm="http://www.corel.com/coreldraw/odm/2003">
 <defs>
  <style type="text/css">
   <![CDATA[
    .str1 {stroke:#5CA550;stroke-width:469.72;stroke-miterlimit:22.9256}
    .str2 {stroke:#346A2D;stroke-width:469.72;stroke-miterlimit:22.9256}
    .str0 {stroke:#223A14;stroke-width:939.48;stroke-miterlimit:22.9256}
    .fil1 {fill:none;fill-rule:nonzero}
    .fil5 {fill:#5CA550}
    .fil0 {fill:#346A2D}
    .fil4 {fill:#346A2D}
    .fil2 {fill:#FEFEFE;fill-rule:nonzero}
    .fil3 {fill:#A4C54F;fill-rule:nonzero}
    .fil7 {fill:#223A14;fill-rule:nonzero}
    .fil6 {fill:url(#id2)}
   ]]>
  </style>
   <mask id="id0">
  <linearGradient id="id1" gradientUnits="userSpaceOnUse" x1="20210.83" y1="12531.88" x2="19717.91" y2="14064.28">
   <stop offset="0" style="stop-opacity:1; stop-color:white"/>
   <stop offset="1" style="stop-opacity:0; stop-color:white"/>
  </linearGradient>
    <rect style="fill:url(#id1)" x="19027.95" y="11869.16" width="2070.71" height="3029.86"/>
   </mask>
  <linearGradient id="id2" gradientUnits="userSpaceOnUse" x1="19140.35" y1="14266.82" x2="20986.26" y2="12501.36">
   <stop offset="0" style="stop-opacity:1; stop-color:#5CA550"/>
   <stop offset="0.180392" style="stop-opacity:1; stop-color:#58A04D"/>
   <stop offset="0.243137" style="stop-opacity:1; stop-color:#48883F"/>
   <stop offset="0.360784" style="stop-opacity:1; stop-color:#376F30"/>
   <stop offset="0.560784" style="stop-opacity:1; stop-color:#346A2D"/>
   <stop offset="0.729412" style="stop-opacity:1; stop-color:#2F5B29"/>
   <stop offset="1" style="stop-opacity:1; stop-color:#2C5527"/>
  </linearGradient>
 </defs>
 <g id="Слой_x0020_1">
  <metadata id="CorelCorpID_0Corel-Layer"/>
  <path class="fil0" d="M20794.3 10497.66c-11.76,197.72 179.66,401.63 167.91,599.34 277.87,-262.44 572.43,-628 640.22,-1024.72 59.4,-347.59 -86.43,-859.61 -502.4,-882.85 -291,-16.29 -584.55,227.48 -488.45,556.3 51.14,174.99 295.02,287.9 440.92,92.87 -270.18,132.19 -408.57,-223.31 -150.05,-358.99 233.31,-122.43 421.55,182.47 326.35,452.47 -68.08,193.06 -318.15,430.87 -434.5,565.58z"/>
  <path class="fil0" d="M21728 9867.49l0 -0.02 6.81 -19.17c9.33,-13.52 19.31,-26.44 29.86,-38.83 6.46,-8.65 13.46,-16.62 21.51,-23.68 9.56,-9.87 19.53,-19.35 29.87,-28.48 19.96,-52.08 56.49,-113.4 73.8,-164 -4.19,31.31 -1.85,73.4 -2.75,110.16 37.98,-24.81 79.31,-46.48 123.2,-65.77 19.16,-28.98 40.31,-62.79 58,-88.19l-3.82 66.01c44.38,-16.93 90.85,-31.93 138.67,-45.65l22.3 -7.51 -5.73 2.82c14.07,-3.93 28.25,-7.76 42.53,-11.5 -17.13,4.73 -33.9,9.85 -50.35,15.34l-134 65.9c22.99,11.66 45.98,23.32 68.97,34.98 -37.93,0.29 -88.61,-7.35 -130.38,-9.44 -39.77,24.71 -77.08,52.19 -112.16,82.18 45.18,9.93 102.06,20.47 143.06,30.17l-197.4 19.97c-57.86,57.56 -109.11,122.54 -155.01,193.49 -12.84,29.37 -21.07,58.27 -22.63,84.9 68.18,-127.06 134.48,-152.14 134.48,-152.14 366.07,129.28 531.18,-76.79 598.41,-446.19 -192.11,13.45 -423.71,-52.63 -541.65,28.87 -89.6,61.93 -143.9,191.42 -135.59,365.78z"/>
  <g id="_1987084263184">
   <g>
    <path class="fil1 str0" d="M13262.72 12175.12l1082.05 0c104.33,0 181.09,22.36 230.27,67.07 49.19,44.71 73.78,116.25 73.78,214.62l0 532.09c0,274.24 -114.02,503.76 -342.05,688.58 -228.04,184.81 -550.72,277.22 -968.04,277.22 -465.01,0 -855.51,-156.5 -1171.48,-469.49 -315.97,-312.99 -473.95,-721.37 -473.95,-1225.13 0,-465.02 145.31,-838.37 435.95,-1120.06 290.63,-281.69 666.96,-422.54 1129,-422.54 292.12,0 549.97,58.87 773.53,176.62 223.57,117.74 393.47,266.04 509.73,444.89 32.79,50.68 49.18,105.82 49.18,165.44 0,77.5 -50.67,146.06 -152.02,205.68 -166.93,95.39 -363.67,150.53 -590.21,165.44 -134.14,-307.03 -339.82,-460.55 -617.04,-460.55 -202.7,0 -365.15,71.54 -487.37,214.62 -122.22,143.09 -183.32,348.77 -183.32,617.04 0,301.07 82.72,544.75 248.15,731.06 165.44,186.3 361.43,279.45 587.98,279.45 137.12,0 235.49,-23.84 295.1,-71.54 59.62,-47.69 89.43,-126.68 89.43,-236.97l0 -165.44 -397.95 0c-116.25,0 -174.38,-65.58 -174.38,-196.74 0,-137.12 17.89,-274.24 53.66,-411.36zm2976.84 1725.92l-697.52 0c-113.27,0 -169.91,-46.2 -169.91,-138.61l0 -2991.29 1064.17 0c405.4,0 725.09,100.6 959.09,301.81 234,201.21 351,477.68 351,829.42 0,202.7 -46.21,383.04 -138.61,541.03 -92.41,157.99 -217.6,286.16 -375.59,384.53 68.56,143.08 146.06,254.86 232.51,335.35 77.5,74.52 171.4,111.78 281.69,111.78l80.48 0c38.75,101.35 58.13,211.64 58.13,330.87 0,86.45 -48.44,166.19 -145.32,239.22 -96.88,73.03 -215.37,109.55 -355.47,109.55 -232.5,0 -433.71,-104.33 -603.62,-312.99 -149.04,-181.84 -254.86,-387.52 -317.46,-617.04 -107.31,-11.93 -181.83,-26.83 -223.57,-44.72l0 921.09zm0 -2432.38l0 840.6c38.75,11.92 93.9,17.89 165.44,17.89 140.1,0 251.88,-35.77 335.35,-107.32 83.46,-71.54 125.19,-177.36 125.19,-317.46 0,-140.1 -41.73,-247.41 -125.19,-321.93 -83.47,-74.52 -199.72,-111.78 -348.76,-111.78l-152.03 0zm4792.19 -315.23c298.08,290.64 447.13,684.85 447.13,1182.66 0,497.8 -149.05,892.02 -447.13,1182.65 -298.09,290.64 -675.17,435.96 -1131.24,435.96 -456.07,0 -833.15,-145.32 -1131.23,-435.96 -298.09,-290.63 -447.13,-684.85 -447.13,-1182.65 0,-497.81 149.04,-892.02 447.13,-1182.66 298.08,-290.63 675.16,-435.95 1131.23,-435.95 456.07,0 833.15,145.32 1131.24,435.95zm-1108.88 2103.74c202.7,0 368.13,-74.52 496.31,-223.56 128.18,-149.04 192.27,-369.63 192.27,-661.75 0,-286.16 -70.05,-517.18 -210.15,-693.05 -140.1,-175.87 -314.48,-263.81 -523.14,-263.81 -202.7,0 -368.14,74.52 -496.32,223.57 -128.17,149.04 -192.26,369.62 -192.26,661.75 0,286.16 70.05,517.18 210.15,693.05 140.1,175.87 314.48,263.8 523.14,263.8zm2189.89 -652.8l0 -1806.41c202.7,-47.69 415.83,-71.54 639.39,-71.54 152.03,0 228.04,61.11 228.04,183.33l0 1757.21c0,190.78 40.98,336.84 122.96,438.19 81.97,101.35 193.01,152.02 333.11,152.02 143.08,0 254.86,-49.93 335.35,-149.78 80.48,-99.86 120.72,-246.67 120.72,-440.43l0 -1895.82 697.52 0c113.28,0 169.91,46.2 169.91,138.61l0 1694.62c0,420.3 -118.49,750.43 -355.47,990.39 -236.97,239.96 -559.65,359.94 -968.03,359.94 -405.4,0 -727.33,-119.98 -965.8,-359.94 -238.47,-239.96 -357.7,-570.09 -357.7,-990.39zm4273.51 1296.67l-697.52 0c-113.27,0 -169.91,-46.2 -169.91,-138.61l0 -2991.29 1140.18 0c408.38,0 729.57,105.07 963.56,315.22 234,210.15 351,501.53 351,874.14 0,348.76 -114.76,627.47 -344.29,836.13 -229.52,208.66 -523.14,312.99 -880.84,312.99 -116.26,0 -236.98,-16.39 -362.18,-49.18l0 840.6zm0 -2432.38l0 921.08c74.52,14.91 150.54,22.36 228.04,22.36 152.02,0 272,-40.24 359.94,-120.72 87.93,-80.49 131.9,-196.74 131.9,-348.76 0,-155.01 -41.73,-272.75 -125.2,-353.24 -83.46,-80.48 -201.2,-120.72 -353.23,-120.72l-241.45 0z"/>
    <path id="_1" class="fil2" d="M13262.72 12175.12l1082.05 0c104.33,0 181.09,22.36 230.27,67.07 49.19,44.71 73.78,116.25 73.78,214.62l0 532.09c0,274.24 -114.02,503.76 -342.05,688.58 -228.04,184.81 -550.72,277.22 -968.04,277.22 -465.01,0 -855.51,-156.5 -1171.48,-469.49 -315.97,-312.99 -473.95,-721.37 -473.95,-1225.13 0,-465.02 145.31,-838.37 435.95,-1120.06 290.63,-281.69 666.96,-422.54 1129,-422.54 292.12,0 549.97,58.87 773.53,176.62 223.57,117.74 393.47,266.04 509.73,444.89 32.79,50.68 49.18,105.82 49.18,165.44 0,77.5 -50.67,146.06 -152.02,205.68 -166.93,95.39 -363.67,150.53 -590.21,165.44 -134.14,-307.03 -339.82,-460.55 -617.04,-460.55 -202.7,0 -365.15,71.54 -487.37,214.62 -122.22,143.09 -183.32,348.77 -183.32,617.04 0,301.07 82.72,544.75 248.15,731.06 165.44,186.3 361.43,279.45 587.98,279.45 137.12,0 235.49,-23.84 295.1,-71.54 59.62,-47.69 89.43,-126.68 89.43,-236.97l0 -165.44 -397.95 0c-116.25,0 -174.38,-65.58 -174.38,-196.74 0,-137.12 17.89,-274.24 53.66,-411.36zm2976.84 1725.92l-697.52 0c-113.27,0 -169.91,-46.2 -169.91,-138.61l0 -2991.29 1064.17 0c405.4,0 725.09,100.6 959.09,301.81 234,201.21 351,477.68 351,829.42 0,202.7 -46.21,383.04 -138.61,541.03 -92.41,157.99 -217.6,286.16 -375.59,384.53 68.56,143.08 146.06,254.86 232.51,335.35 77.5,74.52 171.4,111.78 281.69,111.78l80.48 0c38.75,101.35 58.13,211.64 58.13,330.87 0,86.45 -48.44,166.19 -145.32,239.22 -96.88,73.03 -215.37,109.55 -355.47,109.55 -232.5,0 -433.71,-104.33 -603.62,-312.99 -149.04,-181.84 -254.86,-387.52 -317.46,-617.04 -107.31,-11.93 -181.83,-26.83 -223.57,-44.72l0 921.09zm0 -2432.38l0 840.6c38.75,11.92 93.9,17.89 165.44,17.89 140.1,0 251.88,-35.77 335.35,-107.32 83.46,-71.54 125.19,-177.36 125.19,-317.46 0,-140.1 -41.73,-247.41 -125.19,-321.93 -83.47,-74.52 -199.72,-111.78 -348.76,-111.78l-152.03 0zm4792.19 -315.23c298.08,290.64 447.13,684.85 447.13,1182.66 0,497.8 -149.05,892.02 -447.13,1182.65 -298.09,290.64 -675.17,435.96 -1131.24,435.96 -456.07,0 -833.15,-145.32 -1131.23,-435.96 -298.09,-290.63 -447.13,-684.85 -447.13,-1182.65 0,-497.81 149.04,-892.02 447.13,-1182.66 298.08,-290.63 675.16,-435.95 1131.23,-435.95 456.07,0 833.15,145.32 1131.24,435.95zm-1108.88 2103.74c202.7,0 368.13,-74.52 496.31,-223.56 128.18,-149.04 192.27,-369.63 192.27,-661.75 0,-286.16 -70.05,-517.18 -210.15,-693.05 -140.1,-175.87 -314.48,-263.81 -523.14,-263.81 -202.7,0 -368.14,74.52 -496.32,223.57 -128.17,149.04 -192.26,369.62 -192.26,661.75 0,286.16 70.05,517.18 210.15,693.05 140.1,175.87 314.48,263.8 523.14,263.8zm2189.89 -652.8l0 -1806.41c202.7,-47.69 415.83,-71.54 639.39,-71.54 152.03,0 228.04,61.11 228.04,183.33l0 1757.21c0,190.78 40.98,336.84 122.96,438.19 81.97,101.35 193.01,152.02 333.11,152.02 143.08,0 254.86,-49.93 335.35,-149.78 80.48,-99.86 120.72,-246.67 120.72,-440.43l0 -1895.82 697.52 0c113.28,0 169.91,46.2 169.91,138.61l0 1694.62c0,420.3 -118.49,750.43 -355.47,990.39 -236.97,239.96 -559.65,359.94 -968.03,359.94 -405.4,0 -727.33,-119.98 -965.8,-359.94 -238.47,-239.96 -357.7,-570.09 -357.7,-990.39zm4273.51 1296.67l-697.52 0c-113.27,0 -169.91,-46.2 -169.91,-138.61l0 -2991.29 1140.18 0c408.38,0 729.57,105.07 963.56,315.22 234,210.15 351,501.53 351,874.14 0,348.76 -114.76,627.47 -344.29,836.13 -229.52,208.66 -523.14,312.99 -880.84,312.99 -116.26,0 -236.98,-16.39 -362.18,-49.18l0 840.6zm0 -2432.38l0 921.08c74.52,14.91 150.54,22.36 228.04,22.36 152.02,0 272,-40.24 359.94,-120.72 87.93,-80.49 131.9,-196.74 131.9,-348.76 0,-155.01 -41.73,-272.75 -125.2,-353.24 -83.46,-80.48 -201.2,-120.72 -353.23,-120.72l-241.45 0z"/>
   </g>
   <g>
    <path class="fil1 str0" d="M3338.4 6674.91l1927.13 0c110.29,0 165.44,62.6 165.44,187.79 0,155.01 -17.89,324.91 -53.66,509.73l-1171.48 0 0 675.16 845.08 0c92.4,0 138.61,56.64 138.61,169.91l0 527.61 -983.69 0 0 1059.7 -697.52 0c-113.27,0 -169.91,-46.2 -169.91,-138.61l0 -2991.29z"/>
    <path id="_1_0" class="fil3" d="M3338.4 6674.91l1927.13 0c110.29,0 165.44,62.6 165.44,187.79 0,155.01 -17.89,324.91 -53.66,509.73l-1171.48 0 0 675.16 845.08 0c92.4,0 138.61,56.64 138.61,169.91l0 527.61 -983.69 0 0 1059.7 -697.52 0c-113.27,0 -169.91,-46.2 -169.91,-138.61l0 -2991.29z"/>
   </g>
   <g>
    <path class="fil1 str0" d="M5954.49 8713.82l0 -2012.09c202.7,-47.69 415.83,-71.54 639.39,-71.54 152.03,0 228.04,61.11 228.04,183.33l0 1842.17c0,169.91 20.87,287.65 62.6,353.23 41.73,65.58 120.72,98.37 236.98,98.37l840.6 0c92.41,0 138.61,56.64 138.61,169.91l0 527.61 -1135.71 0c-348.76,0 -604.37,-88.68 -766.82,-266.04 -162.46,-177.36 -243.69,-452.35 -243.69,-824.95z"/>
    <path id="_1_1" class="fil3" d="M5954.49 8713.82l0 -2012.09c202.7,-47.69 415.83,-71.54 639.39,-71.54 152.03,0 228.04,61.11 228.04,183.33l0 1842.17c0,169.91 20.87,287.65 62.6,353.23 41.73,65.58 120.72,98.37 236.98,98.37l840.6 0c92.41,0 138.61,56.64 138.61,169.91l0 527.61 -1135.71 0c-348.76,0 -604.37,-88.68 -766.82,-266.04 -162.46,-177.36 -243.69,-452.35 -243.69,-824.95z"/>
   </g>
   <g>
    <path class="fil1 str0" d="M11088.85 7057.2c298.08,290.64 447.13,684.85 447.13,1182.66 0,497.8 -149.05,892.02 -447.13,1182.65 -298.09,290.64 -675.17,435.96 -1131.24,435.96 -456.07,0 -833.15,-145.32 -1131.23,-435.96 -298.09,-290.63 -447.13,-684.85 -447.13,-1182.65 0,-497.81 149.04,-892.02 447.13,-1182.66 298.08,-290.63 675.16,-435.95 1131.23,-435.95 456.07,0 833.15,145.32 1131.24,435.95zm-1108.88 2103.74c202.7,0 368.13,-74.52 496.31,-223.56 128.18,-149.04 192.27,-369.63 192.27,-661.75 0,-286.16 -70.05,-517.18 -210.15,-693.05 -140.1,-175.87 -314.48,-263.81 -523.14,-263.81 -202.7,0 -368.14,74.52 -496.32,223.57 -128.17,149.04 -192.26,369.62 -192.26,661.75 0,286.16 70.05,517.18 210.15,693.05 140.1,175.87 314.48,263.8 523.14,263.8z"/>
    <path id="_1_2" class="fil3" d="M11088.85 7057.2c298.08,290.64 447.13,684.85 447.13,1182.66 0,497.8 -149.05,892.02 -447.13,1182.65 -298.09,290.64 -675.17,435.96 -1131.24,435.96 -456.07,0 -833.15,-145.32 -1131.23,-435.96 -298.09,-290.63 -447.13,-684.85 -447.13,-1182.65 0,-497.81 149.04,-892.02 447.13,-1182.66 298.08,-290.63 675.16,-435.95 1131.23,-435.95 456.07,0 833.15,145.32 1131.24,435.95zm-1108.88 2103.74c202.7,0 368.13,-74.52 496.31,-223.56 128.18,-149.04 192.27,-369.63 192.27,-661.75 0,-286.16 -70.05,-517.18 -210.15,-693.05 -140.1,-175.87 -314.48,-263.81 -523.14,-263.81 -202.7,0 -368.14,74.52 -496.32,223.57 -128.17,149.04 -192.26,369.62 -192.26,661.75 0,286.16 70.05,517.18 210.15,693.05 140.1,175.87 314.48,263.8 523.14,263.8z"/>
   </g>
   <g>
    <path class="fil1 str0" d="M12922.09 9804.81l-697.52 0c-113.27,0 -169.91,-46.2 -169.91,-138.61l0 -2991.29 1064.17 0c405.4,0 725.09,100.6 959.09,301.81 234,201.21 351,477.68 351,829.42 0,202.7 -46.21,383.04 -138.61,541.03 -92.41,157.99 -217.6,286.16 -375.59,384.53 68.56,143.08 146.06,254.86 232.51,335.35 77.5,74.52 171.4,111.78 281.69,111.78l80.48 0c38.75,101.35 58.13,211.64 58.13,330.87 0,86.45 -48.44,166.19 -145.32,239.22 -96.88,73.03 -215.37,109.55 -355.47,109.55 -232.5,0 -433.71,-104.33 -603.62,-312.99 -149.04,-181.84 -254.86,-387.52 -317.46,-617.04 -107.31,-11.93 -181.83,-26.83 -223.57,-44.72l0 921.09zm0 -2432.38l0 840.6c38.75,11.92 93.9,17.89 165.44,17.89 140.1,0 251.88,-35.77 335.35,-107.32 83.46,-71.54 125.19,-177.36 125.19,-317.46 0,-140.1 -41.73,-247.41 -125.19,-321.93 -83.47,-74.52 -199.72,-111.78 -348.76,-111.78l-152.03 0z"/>
    <path id="_1_3" class="fil3" d="M12922.09 9804.81l-697.52 0c-113.27,0 -169.91,-46.2 -169.91,-138.61l0 -2991.29 1064.17 0c405.4,0 725.09,100.6 959.09,301.81 234,201.21 351,477.68 351,829.42 0,202.7 -46.21,383.04 -138.61,541.03 -92.41,157.99 -217.6,286.16 -375.59,384.53 68.56,143.08 146.06,254.86 232.51,335.35 77.5,74.52 171.4,111.78 281.69,111.78l80.48 0c38.75,101.35 58.13,211.64 58.13,330.87 0,86.45 -48.44,166.19 -145.32,239.22 -96.88,73.03 -215.37,109.55 -355.47,109.55 -232.5,0 -433.71,-104.33 -603.62,-312.99 -149.04,-181.84 -254.86,-387.52 -317.46,-617.04 -107.31,-11.93 -181.83,-26.83 -223.57,-44.72l0 921.09zm0 -2432.38l0 840.6c38.75,11.92 93.9,17.89 165.44,17.89 140.1,0 251.88,-35.77 335.35,-107.32 83.46,-71.54 125.19,-177.36 125.19,-317.46 0,-140.1 -41.73,-247.41 -125.19,-321.93 -83.47,-74.52 -199.72,-111.78 -348.76,-111.78l-152.03 0z"/>
   </g>
   <g>
    <path class="fil1 str0" d="M18094.41 9804.81l-742.23 0c-110.29,0 -178.85,-41.73 -205.68,-125.2l-116.25 -371.11 -965.8 0 -147.55 496.31 -724.35 0c-53.66,0 -93.15,-14.16 -118.49,-42.48 -25.34,-28.32 -30.56,-66.32 -15.65,-114.02l1041.81 -2883.98c190.77,-80.48 386.02,-120.72 585.74,-120.72 104.33,0 180.34,16.39 228.03,49.18 47.7,32.79 87.94,93.9 120.73,183.33l1059.69 2928.69zm-1547.06 -2083.62l-286.16 934.5 572.32 0 -286.16 -934.5z"/>
    <path id="_1_4" class="fil3" d="M18094.41 9804.81l-742.23 0c-110.29,0 -178.85,-41.73 -205.68,-125.2l-116.25 -371.11 -965.8 0 -147.55 496.31 -724.35 0c-53.66,0 -93.15,-14.16 -118.49,-42.48 -25.34,-28.32 -30.56,-66.32 -15.65,-114.02l1041.81 -2883.98c190.77,-80.48 386.02,-120.72 585.74,-120.72 104.33,0 180.34,16.39 228.03,49.18 47.7,32.79 87.94,93.9 120.73,183.33l1059.69 2928.69zm-1547.06 -2083.62l-286.16 934.5 572.32 0 -286.16 -934.5z"/>
   </g>
  </g>
  <path class="fil0" d="M11300.9 5791.88l0.02 -0.04 9.42 -75.92c23.26,-57.23 49.39,-112.77 78.08,-166.8 16.69,-37 35.89,-71.97 59.74,-104.43 27.07,-43.98 55.97,-86.88 86.51,-128.82 30.96,-207.39 115.26,-462.17 137.73,-662.01 10.04,118.34 52.84,270.98 79.38,406.64 119.28,-121.9 253.41,-235.05 398.85,-341.51 46.82,-121.96 97,-263.26 141.31,-370.88l39.59 245.46c149.16,-98.23 307.59,-191.02 472.01,-280.25l75.76 -45.67 -18.74 15c48.46,-25.87 97.41,-51.43 146.77,-76.77 -59.02,31.28 -116.44,63.7 -172.36,97.23l-438.42 350.75c93.86,24.13 187.73,48.28 281.6,72.41 -139,31.88 -331.26,44.98 -486.29,71.23 -125.95,123.05 -240.59,254.24 -345.01,392.82 173.91,-0.25 391.29,-7.76 549.7,-5.43l-708.46 233.64c-165.67,258.32 -301.03,538.48 -411.91,836.27 -23.3,118.23 -30.02,231 -14.12,330.06 147.1,-521.86 370.12,-667.8 370.12,-667.8 1448.92,177.26 1887.67,-713.37 1834.46,-2124.11 -694.36,205.41 -1598.3,150.95 -1965.05,545.96 -278.66,300.13 -372.82,819.64 -200.69,1452.97z"/>
  <path class="fil0" d="M10898.74 5947.3l-0.01 -0.02 -8.66 -30.51c-13.14,-21.98 -27.36,-43.09 -42.52,-63.41 -9.18,-14.11 -19.25,-27.22 -31.07,-39.01 -13.87,-16.32 -28.42,-32.07 -43.58,-47.32 -25.78,-83.02 -76.4,-182.09 -98.23,-262.54 3.36,49.12 -4.54,114.36 -6.85,171.61 -56.56,-42.41 -118.66,-80.3 -184.97,-114.73 -26.89,-47.02 -56.37,-101.74 -81.32,-143.04l-0.72 103.07c-67.31,-30.83 -138.08,-58.84 -211.08,-85.02l-33.92 -13.93 8.62 4.96c-21.49,-7.54 -43.16,-14.92 -64.98,-22.19 26.15,9.09 51.73,18.75 76.76,28.96l201.77 116.03c-36.94,15.81 -73.87,31.63 -110.81,47.44 58.97,4.29 138.57,-2.48 203.74,-1.52 59.38,42.47 114.63,88.98 166.16,139.16 -71.27,10.88 -160.81,21.53 -225.56,32.49l305.01 50.99c84.19,95.38 157.34,201.63 221.57,316.63 17.01,46.97 26.88,92.75 26.62,134.34 -93.21,-204.53 -193.8,-250.24 -193.8,-250.24 -582.46,164.11 -818.45,-173.1 -885.72,-754.46 297.46,40.32 664.38,-39.07 839.59,99.62 133.11,105.38 204.49,312.28 173.96,582.64z"/>
  <g>
   <path class="fil1 str1" d="M13262.72 12175.12l1082.05 0c104.33,0 181.09,22.36 230.27,67.07 49.19,44.71 73.78,116.25 73.78,214.62l0 532.09c0,274.24 -114.02,503.76 -342.05,688.58 -228.04,184.81 -550.72,277.22 -968.04,277.22 -465.01,0 -855.51,-156.5 -1171.48,-469.49 -315.97,-312.99 -473.95,-721.37 -473.95,-1225.13 0,-465.02 145.31,-838.37 435.95,-1120.06 290.63,-281.69 666.96,-422.54 1129,-422.54 292.12,0 549.97,58.87 773.53,176.62 223.57,117.74 393.47,266.04 509.73,444.89 32.79,50.68 49.18,105.82 49.18,165.44 0,77.5 -50.67,146.06 -152.02,205.68 -166.93,95.39 -363.67,150.53 -590.21,165.44 -134.14,-307.03 -339.82,-460.55 -617.04,-460.55 -202.7,0 -365.15,71.54 -487.37,214.62 -122.22,143.09 -183.32,348.77 -183.32,617.04 0,301.07 82.72,544.75 248.15,731.06 165.44,186.3 361.43,279.45 587.98,279.45 137.12,0 235.49,-23.84 295.1,-71.54 59.62,-47.69 89.43,-126.68 89.43,-236.97l0 -165.44 -397.95 0c-116.25,0 -174.38,-65.58 -174.38,-196.74 0,-137.12 17.89,-274.24 53.66,-411.36zm2976.84 1725.92l-697.52 0c-113.27,0 -169.91,-46.2 -169.91,-138.61l0 -2991.29 1064.17 0c405.4,0 725.09,100.6 959.09,301.81 234,201.21 351,477.68 351,829.42 0,202.7 -46.21,383.04 -138.61,541.03 -92.41,157.99 -217.6,286.16 -375.59,384.53 68.56,143.08 146.06,254.86 232.51,335.35 77.5,74.52 171.4,111.78 281.69,111.78l80.48 0c38.75,101.35 58.13,211.64 58.13,330.87 0,86.45 -48.44,166.19 -145.32,239.22 -96.88,73.03 -215.37,109.55 -355.47,109.55 -232.5,0 -433.71,-104.33 -603.62,-312.99 -149.04,-181.84 -254.86,-387.52 -317.46,-617.04 -107.31,-11.93 -181.83,-26.83 -223.57,-44.72l0 921.09zm0 -2432.38l0 840.6c38.75,11.92 93.9,17.89 165.44,17.89 140.1,0 251.88,-35.77 335.35,-107.32 83.46,-71.54 125.19,-177.36 125.19,-317.46 0,-140.1 -41.73,-247.41 -125.19,-321.93 -83.47,-74.52 -199.72,-111.78 -348.76,-111.78l-152.03 0zm4792.19 -315.23c298.08,290.64 447.13,684.85 447.13,1182.66 0,497.8 -149.05,892.02 -447.13,1182.65 -298.09,290.64 -675.17,435.96 -1131.24,435.96 -456.07,0 -833.15,-145.32 -1131.23,-435.96 -298.09,-290.63 -447.13,-684.85 -447.13,-1182.65 0,-497.81 149.04,-892.02 447.13,-1182.66 298.08,-290.63 675.16,-435.95 1131.23,-435.95 456.07,0 833.15,145.32 1131.24,435.95zm-1108.88 2103.74c202.7,0 368.13,-74.52 496.31,-223.56 128.18,-149.04 192.27,-369.63 192.27,-661.75 0,-286.16 -70.05,-517.18 -210.15,-693.05 -140.1,-175.87 -314.48,-263.81 -523.14,-263.81 -202.7,0 -368.14,74.52 -496.32,223.57 -128.17,149.04 -192.26,369.62 -192.26,661.75 0,286.16 70.05,517.18 210.15,693.05 140.1,175.87 314.48,263.8 523.14,263.8zm2189.89 -652.8l0 -1806.41c202.7,-47.69 415.83,-71.54 639.39,-71.54 152.03,0 228.04,61.11 228.04,183.33l0 1757.21c0,190.78 40.98,336.84 122.96,438.19 81.97,101.35 193.01,152.02 333.11,152.02 143.08,0 254.86,-49.93 335.35,-149.78 80.48,-99.86 120.72,-246.67 120.72,-440.43l0 -1895.82 697.52 0c113.28,0 169.91,46.2 169.91,138.61l0 1694.62c0,420.3 -118.49,750.43 -355.47,990.39 -236.97,239.96 -559.65,359.94 -968.03,359.94 -405.4,0 -727.33,-119.98 -965.8,-359.94 -238.47,-239.96 -357.7,-570.09 -357.7,-990.39zm4273.51 1296.67l-697.52 0c-113.27,0 -169.91,-46.2 -169.91,-138.61l0 -2991.29 1140.18 0c408.38,0 729.57,105.07 963.56,315.22 234,210.15 351,501.53 351,874.14 0,348.76 -114.76,627.47 -344.29,836.13 -229.52,208.66 -523.14,312.99 -880.84,312.99 -116.26,0 -236.98,-16.39 -362.18,-49.18l0 840.6zm0 -2432.38l0 921.08c74.52,14.91 150.54,22.36 228.04,22.36 152.02,0 272,-40.24 359.94,-120.72 87.93,-80.49 131.9,-196.74 131.9,-348.76 0,-155.01 -41.73,-272.75 -125.2,-353.24 -83.46,-80.48 -201.2,-120.72 -353.23,-120.72l-241.45 0z"/>
   <path id="_1_5" class="fil2" d="M13262.72 12175.12l1082.05 0c104.33,0 181.09,22.36 230.27,67.07 49.19,44.71 73.78,116.25 73.78,214.62l0 532.09c0,274.24 -114.02,503.76 -342.05,688.58 -228.04,184.81 -550.72,277.22 -968.04,277.22 -465.01,0 -855.51,-156.5 -1171.48,-469.49 -315.97,-312.99 -473.95,-721.37 -473.95,-1225.13 0,-465.02 145.31,-838.37 435.95,-1120.06 290.63,-281.69 666.96,-422.54 1129,-422.54 292.12,0 549.97,58.87 773.53,176.62 223.57,117.74 393.47,266.04 509.73,444.89 32.79,50.68 49.18,105.82 49.18,165.44 0,77.5 -50.67,146.06 -152.02,205.68 -166.93,95.39 -363.67,150.53 -590.21,165.44 -134.14,-307.03 -339.82,-460.55 -617.04,-460.55 -202.7,0 -365.15,71.54 -487.37,214.62 -122.22,143.09 -183.32,348.77 -183.32,617.04 0,301.07 82.72,544.75 248.15,731.06 165.44,186.3 361.43,279.45 587.98,279.45 137.12,0 235.49,-23.84 295.1,-71.54 59.62,-47.69 89.43,-126.68 89.43,-236.97l0 -165.44 -397.95 0c-116.25,0 -174.38,-65.58 -174.38,-196.74 0,-137.12 17.89,-274.24 53.66,-411.36zm2976.84 1725.92l-697.52 0c-113.27,0 -169.91,-46.2 -169.91,-138.61l0 -2991.29 1064.17 0c405.4,0 725.09,100.6 959.09,301.81 234,201.21 351,477.68 351,829.42 0,202.7 -46.21,383.04 -138.61,541.03 -92.41,157.99 -217.6,286.16 -375.59,384.53 68.56,143.08 146.06,254.86 232.51,335.35 77.5,74.52 171.4,111.78 281.69,111.78l80.48 0c38.75,101.35 58.13,211.64 58.13,330.87 0,86.45 -48.44,166.19 -145.32,239.22 -96.88,73.03 -215.37,109.55 -355.47,109.55 -232.5,0 -433.71,-104.33 -603.62,-312.99 -149.04,-181.84 -254.86,-387.52 -317.46,-617.04 -107.31,-11.93 -181.83,-26.83 -223.57,-44.72l0 921.09zm0 -2432.38l0 840.6c38.75,11.92 93.9,17.89 165.44,17.89 140.1,0 251.88,-35.77 335.35,-107.32 83.46,-71.54 125.19,-177.36 125.19,-317.46 0,-140.1 -41.73,-247.41 -125.19,-321.93 -83.47,-74.52 -199.72,-111.78 -348.76,-111.78l-152.03 0zm4792.19 -315.23c298.08,290.64 447.13,684.85 447.13,1182.66 0,497.8 -149.05,892.02 -447.13,1182.65 -298.09,290.64 -675.17,435.96 -1131.24,435.96 -456.07,0 -833.15,-145.32 -1131.23,-435.96 -298.09,-290.63 -447.13,-684.85 -447.13,-1182.65 0,-497.81 149.04,-892.02 447.13,-1182.66 298.08,-290.63 675.16,-435.95 1131.23,-435.95 456.07,0 833.15,145.32 1131.24,435.95zm-1108.88 2103.74c202.7,0 368.13,-74.52 496.31,-223.56 128.18,-149.04 192.27,-369.63 192.27,-661.75 0,-286.16 -70.05,-517.18 -210.15,-693.05 -140.1,-175.87 -314.48,-263.81 -523.14,-263.81 -202.7,0 -368.14,74.52 -496.32,223.57 -128.17,149.04 -192.26,369.62 -192.26,661.75 0,286.16 70.05,517.18 210.15,693.05 140.1,175.87 314.48,263.8 523.14,263.8zm2189.89 -652.8l0 -1806.41c202.7,-47.69 415.83,-71.54 639.39,-71.54 152.03,0 228.04,61.11 228.04,183.33l0 1757.21c0,190.78 40.98,336.84 122.96,438.19 81.97,101.35 193.01,152.02 333.11,152.02 143.08,0 254.86,-49.93 335.35,-149.78 80.48,-99.86 120.72,-246.67 120.72,-440.43l0 -1895.82 697.52 0c113.28,0 169.91,46.2 169.91,138.61l0 1694.62c0,420.3 -118.49,750.43 -355.47,990.39 -236.97,239.96 -559.65,359.94 -968.03,359.94 -405.4,0 -727.33,-119.98 -965.8,-359.94 -238.47,-239.96 -357.7,-570.09 -357.7,-990.39zm4273.51 1296.67l-697.52 0c-113.27,0 -169.91,-46.2 -169.91,-138.61l0 -2991.29 1140.18 0c408.38,0 729.57,105.07 963.56,315.22 234,210.15 351,501.53 351,874.14 0,348.76 -114.76,627.47 -344.29,836.13 -229.52,208.66 -523.14,312.99 -880.84,312.99 -116.26,0 -236.98,-16.39 -362.18,-49.18l0 840.6zm0 -2432.38l0 921.08c74.52,14.91 150.54,22.36 228.04,22.36 152.02,0 272,-40.24 359.94,-120.72 87.93,-80.49 131.9,-196.74 131.9,-348.76 0,-155.01 -41.73,-272.75 -125.2,-353.24 -83.46,-80.48 -201.2,-120.72 -353.23,-120.72l-241.45 0z"/>
  </g>
  <g>
   <path class="fil1 str2" d="M3338.4 6674.91l1927.13 0c110.29,0 165.44,62.6 165.44,187.79 0,155.01 -17.89,324.91 -53.66,509.73l-1171.48 0 0 675.16 845.08 0c92.4,0 138.61,56.64 138.61,169.91l0 527.61 -983.69 0 0 1059.7 -697.52 0c-113.27,0 -169.91,-46.2 -169.91,-138.61l0 -2991.29z"/>
   <path id="_1_6" class="fil3" d="M3338.4 6674.91l1927.13 0c110.29,0 165.44,62.6 165.44,187.79 0,155.01 -17.89,324.91 -53.66,509.73l-1171.48 0 0 675.16 845.08 0c92.4,0 138.61,56.64 138.61,169.91l0 527.61 -983.69 0 0 1059.7 -697.52 0c-113.27,0 -169.91,-46.2 -169.91,-138.61l0 -2991.29z"/>
  </g>
  <g>
   <path class="fil1 str2" d="M5954.49 8713.82l0 -2012.09c202.7,-47.69 415.83,-71.54 639.39,-71.54 152.03,0 228.04,61.11 228.04,183.33l0 1842.17c0,169.91 20.87,287.65 62.6,353.23 41.73,65.58 120.72,98.37 236.98,98.37l840.6 0c92.41,0 138.61,56.64 138.61,169.91l0 527.61 -1135.71 0c-348.76,0 -604.37,-88.68 -766.82,-266.04 -162.46,-177.36 -243.69,-452.35 -243.69,-824.95z"/>
   <path id="_1_7" class="fil3" d="M5954.49 8713.82l0 -2012.09c202.7,-47.69 415.83,-71.54 639.39,-71.54 152.03,0 228.04,61.11 228.04,183.33l0 1842.17c0,169.91 20.87,287.65 62.6,353.23 41.73,65.58 120.72,98.37 236.98,98.37l840.6 0c92.41,0 138.61,56.64 138.61,169.91l0 527.61 -1135.71 0c-348.76,0 -604.37,-88.68 -766.82,-266.04 -162.46,-177.36 -243.69,-452.35 -243.69,-824.95z"/>
  </g>
  <g>
   <path class="fil1 str2" d="M11088.85 7057.2c298.08,290.64 447.13,684.85 447.13,1182.66 0,497.8 -149.05,892.02 -447.13,1182.65 -298.09,290.64 -675.17,435.96 -1131.24,435.96 -456.07,0 -833.15,-145.32 -1131.23,-435.96 -298.09,-290.63 -447.13,-684.85 -447.13,-1182.65 0,-497.81 149.04,-892.02 447.13,-1182.66 298.08,-290.63 675.16,-435.95 1131.23,-435.95 456.07,0 833.15,145.32 1131.24,435.95zm-1108.88 2103.74c202.7,0 368.13,-74.52 496.31,-223.56 128.18,-149.04 192.27,-369.63 192.27,-661.75 0,-286.16 -70.05,-517.18 -210.15,-693.05 -140.1,-175.87 -314.48,-263.81 -523.14,-263.81 -202.7,0 -368.14,74.52 -496.32,223.57 -128.17,149.04 -192.26,369.62 -192.26,661.75 0,286.16 70.05,517.18 210.15,693.05 140.1,175.87 314.48,263.8 523.14,263.8z"/>
   <path id="_1_8" class="fil3" d="M11088.85 7057.2c298.08,290.64 447.13,684.85 447.13,1182.66 0,497.8 -149.05,892.02 -447.13,1182.65 -298.09,290.64 -675.17,435.96 -1131.24,435.96 -456.07,0 -833.15,-145.32 -1131.23,-435.96 -298.09,-290.63 -447.13,-684.85 -447.13,-1182.65 0,-497.81 149.04,-892.02 447.13,-1182.66 298.08,-290.63 675.16,-435.95 1131.23,-435.95 456.07,0 833.15,145.32 1131.24,435.95zm-1108.88 2103.74c202.7,0 368.13,-74.52 496.31,-223.56 128.18,-149.04 192.27,-369.63 192.27,-661.75 0,-286.16 -70.05,-517.18 -210.15,-693.05 -140.1,-175.87 -314.48,-263.81 -523.14,-263.81 -202.7,0 -368.14,74.52 -496.32,223.57 -128.17,149.04 -192.26,369.62 -192.26,661.75 0,286.16 70.05,517.18 210.15,693.05 140.1,175.87 314.48,263.8 523.14,263.8z"/>
  </g>
  <g>
   <path class="fil1 str2" d="M12922.09 9804.81l-697.52 0c-113.27,0 -169.91,-46.2 -169.91,-138.61l0 -2991.29 1064.17 0c405.4,0 725.09,100.6 959.09,301.81 234,201.21 351,477.68 351,829.42 0,202.7 -46.21,383.04 -138.61,541.03 -92.41,157.99 -217.6,286.16 -375.59,384.53 68.56,143.08 146.06,254.86 232.51,335.35 77.5,74.52 171.4,111.78 281.69,111.78l80.48 0c38.75,101.35 58.13,211.64 58.13,330.87 0,86.45 -48.44,166.19 -145.32,239.22 -96.88,73.03 -215.37,109.55 -355.47,109.55 -232.5,0 -433.71,-104.33 -603.62,-312.99 -149.04,-181.84 -254.86,-387.52 -317.46,-617.04 -107.31,-11.93 -181.83,-26.83 -223.57,-44.72l0 921.09zm0 -2432.38l0 840.6c38.75,11.92 93.9,17.89 165.44,17.89 140.1,0 251.88,-35.77 335.35,-107.32 83.46,-71.54 125.19,-177.36 125.19,-317.46 0,-140.1 -41.73,-247.41 -125.19,-321.93 -83.47,-74.52 -199.72,-111.78 -348.76,-111.78l-152.03 0z"/>
   <path id="_1_9" class="fil3" d="M12922.09 9804.81l-697.52 0c-113.27,0 -169.91,-46.2 -169.91,-138.61l0 -2991.29 1064.17 0c405.4,0 725.09,100.6 959.09,301.81 234,201.21 351,477.68 351,829.42 0,202.7 -46.21,383.04 -138.61,541.03 -92.41,157.99 -217.6,286.16 -375.59,384.53 68.56,143.08 146.06,254.86 232.51,335.35 77.5,74.52 171.4,111.78 281.69,111.78l80.48 0c38.75,101.35 58.13,211.64 58.13,330.87 0,86.45 -48.44,166.19 -145.32,239.22 -96.88,73.03 -215.37,109.55 -355.47,109.55 -232.5,0 -433.71,-104.33 -603.62,-312.99 -149.04,-181.84 -254.86,-387.52 -317.46,-617.04 -107.31,-11.93 -181.83,-26.83 -223.57,-44.72l0 921.09zm0 -2432.38l0 840.6c38.75,11.92 93.9,17.89 165.44,17.89 140.1,0 251.88,-35.77 335.35,-107.32 83.46,-71.54 125.19,-177.36 125.19,-317.46 0,-140.1 -41.73,-247.41 -125.19,-321.93 -83.47,-74.52 -199.72,-111.78 -348.76,-111.78l-152.03 0z"/>
  </g>
  <g>
   <path class="fil1 str2" d="M18094.41 9804.81l-742.23 0c-110.29,0 -178.85,-41.73 -205.68,-125.2l-116.25 -371.11 -965.8 0 -147.55 496.31 -724.35 0c-53.66,0 -93.15,-14.16 -118.49,-42.48 -25.34,-28.32 -30.56,-66.32 -15.65,-114.02l1041.81 -2883.98c190.77,-80.48 386.02,-120.72 585.74,-120.72 104.33,0 180.34,16.39 228.03,49.18 47.7,32.79 87.94,93.9 120.73,183.33l1059.69 2928.69zm-1547.06 -2083.62l-286.16 934.5 572.32 0 -286.16 -934.5z"/>
   <path id="_1_10" class="fil3" d="M18094.41 9804.81l-742.23 0c-110.29,0 -178.85,-41.73 -205.68,-125.2l-116.25 -371.11 -965.8 0 -147.55 496.31 -724.35 0c-53.66,0 -93.15,-14.16 -118.49,-42.48 -25.34,-28.32 -30.56,-66.32 -15.65,-114.02l1041.81 -2883.98c190.77,-80.48 386.02,-120.72 585.74,-120.72 104.33,0 180.34,16.39 228.03,49.18 47.7,32.79 87.94,93.9 120.73,183.33l1059.69 2928.69zm-1547.06 -2083.62l-286.16 934.5 572.32 0 -286.16 -934.5z"/>
  </g>
  <path class="fil4" d="M19024.8 14519.72l-0.02 -0.01 -36.09 -16.96c-32.67,-6.85 -65.59,-12.19 -98.72,-16.18 -21.68,-3.83 -43.33,-6.18 -65.48,-6.14 -28.22,-1.89 -56.6,-2.81 -85.11,-2.86 -100.35,-44.44 -239.29,-82.01 -333.48,-127.54 47.87,35.55 99.5,92.37 149.28,138.65 -93.22,11.05 -187.68,29.93 -283.07,54.76 -68.7,-15.61 -146.92,-35.19 -208.56,-47.86l92.94 80.63c-93.09,28.42 -186.96,61.71 -281.32,98.16l-45.45 15.57 12.84 -2.86c-27.62,10.86 -55.28,21.98 -82.98,33.32 33.55,-13.29 67.05,-25.68 100.52,-37.22l300.48 -66.83c-21.34,41.02 -42.68,82.04 -64.02,123.06 60.9,-42.54 131.71,-109.72 195.6,-159.68 95.97,-13.2 191.65,-20.04 287.06,-21.15 -59.02,63.9 -135.91,141.82 -188.57,200.7l341.23 -197.66c168.04,8.61 335.28,34.24 501.86,73.61 59.11,23.26 110.25,51.14 147.78,83.65 -275.93,-86.37 -414.71,-43.63 -414.71,-43.63 -414.04,580.58 -948.55,502.21 -1541.73,102.92 324.22,-200.08 606.85,-547.18 902.23,-575.73 224.43,-21.7 481.41,83.5 697.49,317.28z"/>
  <path class="fil5" d="M20127.13 12579.97c-977.87,1227 -387.06,2360.02 645.37,1671.81 105.29,-46.15 260.12,-139.55 316.16,-174.39 -162.48,271.07 -475.56,634.82 -773.78,746.34 -269.94,100.93 -530.06,74.17 -697.38,-7.8 -1007.76,-493.62 -542.77,-2125.97 194.96,-2922.59l0.36 0.36c247.91,-91.99 391.06,266.31 314.31,686.27z"/>
  <path class="fil6" style="mask:url(#id0)" d="M20127.13 12579.97c-977.87,1227 -387.06,2360.02 645.37,1671.81 105.29,-46.15 260.12,-139.55 316.16,-174.39 -162.48,271.07 -475.58,634.84 -773.78,746.34 -269.91,100.91 -530.06,74.17 -697.38,-7.8 -1007.76,-493.62 -542.77,-2125.97 194.96,-2922.59l0.36 0.36c247.91,-91.99 391.06,266.31 314.31,686.27z"/>
</g>
</svg>
